<?xml version="1.0" encoding="utf-8"?>
<!-- Generator: Adobe Illustrator 25.4.1, SVG Export Plug-In . SVG Version: 6.00 Build 0)  -->
<svg version="1.1" id="Layer_1" xmlns="http://www.w3.org/2000/svg" xmlns:xlink="http://www.w3.org/1999/xlink" x="0px" y="0px"
	 viewBox="0 0 141.73 58.74" style="enable-background:new 0 0 141.73 58.74;" xml:space="preserve">
<style type="text/css">
	.st0{fill:#047938;}
	.st1{fill:#EC660C;}
	.st2{fill:#E71D73;}
	.st3{fill:#1F71B8;}
	.st4{fill:#FFD405;}
	.st5{fill:#702381;}
	.st6{fill:#06A099;}
	.st7{fill:#A59CCC;}
	.st8{fill:#D4CCE3;}
</style>
<g>
	<g>
		<path d="M13.05,17.6c0,0.71-0.2,1.3-0.61,1.76c-0.45,0.51-1.06,0.76-1.85,0.76c-0.69,0-1.23-0.21-1.62-0.64
			c-0.33-0.36-0.5-0.8-0.5-1.31c0-0.31,0.05-0.62,0.16-0.94c0.13-0.4,0.32-0.61,0.54-0.61S9.52,16.76,9.52,17
			c0,0.11-0.03,0.27-0.1,0.49s-0.1,0.39-0.1,0.5c0,0.36,0.14,0.64,0.41,0.83c0.24,0.18,0.55,0.27,0.92,0.27
			c0.46,0,0.81-0.11,1.07-0.33c0.28-0.24,0.42-0.58,0.42-1.03c0-0.12-0.03-0.29-0.1-0.53s-0.1-0.41-0.1-0.52
			c0-0.33,0.16-0.49,0.47-0.49c0.22,0,0.39,0.19,0.5,0.57C13.01,17.04,13.05,17.31,13.05,17.6z M11.12,15.36
			c0,0.14-0.05,0.26-0.14,0.36s-0.21,0.15-0.36,0.15s-0.26-0.05-0.36-0.15s-0.15-0.22-0.15-0.36s0.05-0.26,0.15-0.36
			s0.22-0.15,0.36-0.15s0.26,0.05,0.36,0.15S11.12,15.22,11.12,15.36z"/>
		<path d="M15.33,18.92h-0.29c-0.59,0-0.98-0.21-1.17-0.62c-0.12-0.25-0.19-0.73-0.21-1.42l-0.1-2.79c-0.01-0.16,0.03-0.29,0.1-0.4
			c0.08-0.13,0.19-0.19,0.35-0.19c0.3,0,0.45,0.2,0.45,0.59v2.96c0,0.57,0.23,0.85,0.69,0.85h0.2V18.92z"/>
		<path d="M18.67,14.37c-0.83,0.19-1.61,0.43-2.34,0.71c-0.07,0.03-0.11,0.07-0.11,0.14s0.03,0.12,0.09,0.16
			c1.08,0.82,1.62,1.52,1.62,2.11c0,0.55-0.22,0.94-0.67,1.16c-0.38,0.18-1,0.28-1.88,0.28h-0.3V17.9h0.2c0.58,0,0.93,0,1.03-0.01
			c0.52-0.04,0.79-0.17,0.79-0.37c0-0.15-0.25-0.44-0.74-0.86c-0.55-0.48-0.88-0.8-0.98-0.98c-0.06-0.1-0.08-0.24-0.08-0.41
			c0-0.35,0.12-0.61,0.38-0.76c0.57-0.35,1.46-0.67,2.67-0.95c0.08-0.02,0.14-0.03,0.2-0.03c0.33,0,0.5,0.14,0.5,0.43
			C19.06,14.18,18.93,14.31,18.67,14.37z"/>
		<path d="M22.03,18.68c-0.18,0.13-0.48,0.25-0.89,0.36c-0.29,0.08-0.59,0.11-0.91,0.11c-0.59,0-0.88-0.16-0.85-0.48
			c0.02-0.26,0.24-0.42,0.67-0.47c0.1-0.01,0.42-0.05,0.97-0.09c0.46-0.09,0.69-0.21,0.71-0.36c0.03-0.3-0.29-0.73-0.97-1.32
			c-0.24-0.21-0.36-0.4-0.34-0.55c0.01-0.13,0.07-0.24,0.16-0.31c0.1-0.08,0.21-0.11,0.34-0.1c0.31,0.03,0.65,0.33,1.03,0.92
			c0.37,0.56,0.55,1.01,0.55,1.34C22.5,18.14,22.34,18.46,22.03,18.68z"/>
		<path d="M26.47,18.92h-0.72c-0.29,0.99-1.06,1.74-2.32,2.22c-0.08,0.03-0.15,0.04-0.22,0.04c-0.12,0-0.21-0.04-0.29-0.11
			s-0.11-0.17-0.11-0.29c0-0.21,0.11-0.36,0.33-0.46c0.92-0.41,1.51-0.88,1.76-1.43c-0.48,0-0.82-0.06-1.03-0.17
			c-0.29-0.15-0.43-0.44-0.43-0.87c0-0.33,0.1-0.65,0.3-0.95c0.22-0.33,0.48-0.49,0.78-0.49c0.36,0,0.67,0.16,0.91,0.48
			c0.21,0.28,0.34,0.61,0.37,1h0.67V18.92z M24.94,17.96c-0.01-0.15-0.05-0.28-0.14-0.4c-0.09-0.14-0.21-0.22-0.35-0.22
			c-0.08,0-0.16,0.03-0.22,0.09s-0.09,0.13-0.09,0.22c0,0.16,0.11,0.25,0.32,0.29C24.54,17.95,24.7,17.96,24.94,17.96z"/>
		<path d="M29.81,14.37c-0.83,0.19-1.61,0.43-2.34,0.71c-0.07,0.03-0.11,0.07-0.11,0.14s0.03,0.12,0.09,0.16
			c1.08,0.82,1.62,1.52,1.62,2.11c0,0.55-0.22,0.94-0.67,1.16c-0.38,0.18-1,0.28-1.88,0.28h-0.3V17.9h0.2c0.58,0,0.93,0,1.03-0.01
			c0.52-0.04,0.79-0.17,0.79-0.37c0-0.15-0.25-0.44-0.74-0.86c-0.55-0.48-0.88-0.8-0.98-0.98c-0.06-0.1-0.08-0.24-0.08-0.41
			c0-0.35,0.12-0.61,0.38-0.76c0.57-0.35,1.46-0.67,2.67-0.95c0.08-0.02,0.14-0.03,0.2-0.03c0.33,0,0.5,0.14,0.5,0.43
			C30.2,14.18,30.07,14.31,29.81,14.37z"/>
		<path d="M34.46,17.02c0.01,0.11,0.01,0.22,0.01,0.33c0,0.8-0.23,1.47-0.7,2.03c-0.44,0.53-1.06,0.91-1.84,1.13
			c-0.06,0.02-0.13,0.03-0.2,0.03c-0.29,0-0.44-0.13-0.44-0.4c0-0.22,0.13-0.39,0.4-0.51c0.68-0.31,1.14-0.59,1.39-0.86
			c0.29-0.31,0.44-0.73,0.44-1.25c0-0.06,0-0.15-0.01-0.26c-0.01-0.12-0.01-0.21-0.01-0.26c0-0.48,0.15-0.72,0.43-0.72
			C34.25,16.28,34.43,16.52,34.46,17.02z M34.19,15.03c0,0.14-0.05,0.26-0.15,0.36c-0.1,0.1-0.22,0.15-0.36,0.15
			s-0.26-0.05-0.36-0.15c-0.1-0.1-0.15-0.22-0.15-0.36c0-0.14,0.05-0.26,0.15-0.35c0.1-0.1,0.22-0.15,0.35-0.15
			c0.14,0,0.26,0.05,0.36,0.15C34.14,14.77,34.19,14.89,34.19,15.03z"/>
		<path d="M35.94,18.59c0,0.32-0.13,0.48-0.38,0.48c-0.24,0-0.36-0.15-0.37-0.45l-0.17-4.37c-0.01-0.18,0.03-0.34,0.1-0.48
			c0.09-0.17,0.22-0.25,0.38-0.25c0.3,0,0.44,0.22,0.44,0.67V18.59z"/>
		<path d="M44.52,18.92h-0.3c-0.5,0-0.83-0.18-1-0.54c-0.4,0.52-1.43,0.78-3.09,0.78c-1.73,0-2.6-0.51-2.6-1.52
			c0-0.26,0.04-0.52,0.11-0.76c0.11-0.35,0.26-0.52,0.47-0.52c0.21,0,0.32,0.11,0.32,0.32c0,0.07-0.01,0.18-0.05,0.32
			c-0.03,0.14-0.05,0.25-0.05,0.32c0,0.25,0.09,0.43,0.29,0.55c0.28,0.18,0.8,0.26,1.56,0.26h0.54c1.11,0,1.8-0.16,2.06-0.49
			c0.04-0.04,0.11-0.21,0.24-0.49c0.08-0.17,0.18-0.26,0.32-0.26c0.15,0,0.25,0.06,0.3,0.19c0.01,0.04,0.03,0.15,0.07,0.33
			c0.06,0.32,0.29,0.48,0.68,0.48h0.14V18.92z M40.47,15.38c0,0.14-0.05,0.26-0.15,0.36c-0.1,0.1-0.22,0.15-0.36,0.15
			s-0.26-0.05-0.36-0.15c-0.1-0.1-0.15-0.22-0.15-0.36c0-0.14,0.05-0.26,0.15-0.35c0.1-0.1,0.22-0.15,0.35-0.15
			c0.14,0,0.26,0.05,0.36,0.15C40.42,15.12,40.47,15.24,40.47,15.38z M41.69,15.38c0,0.14-0.05,0.26-0.14,0.36s-0.21,0.15-0.36,0.15
			s-0.26-0.05-0.36-0.15s-0.15-0.22-0.15-0.36s0.05-0.26,0.15-0.36s0.22-0.15,0.36-0.15s0.26,0.05,0.36,0.15
			S41.69,15.24,41.69,15.38z"/>
		<path d="M46.17,17.33c0,0.49-0.14,0.88-0.41,1.17s-0.66,0.43-1.15,0.43h-0.35V17.9h0.4c0.44,0,0.65-0.15,0.65-0.46
			c0-0.09-0.02-0.22-0.06-0.38c-0.04-0.17-0.06-0.3-0.06-0.38c0-0.12,0.04-0.22,0.12-0.31c0.08-0.09,0.18-0.13,0.3-0.13
			C45.99,16.23,46.17,16.6,46.17,17.33z M45.49,20.3c0,0.14-0.05,0.26-0.15,0.36s-0.22,0.15-0.36,0.15s-0.26-0.05-0.36-0.15
			c-0.1-0.1-0.15-0.22-0.15-0.36s0.05-0.26,0.15-0.36c0.1-0.1,0.22-0.15,0.36-0.15c0.14,0,0.26,0.05,0.35,0.15
			C45.44,20.04,45.49,20.16,45.49,20.3z M46.72,20.3c0,0.14-0.05,0.26-0.15,0.36c-0.1,0.1-0.22,0.15-0.36,0.15s-0.26-0.05-0.36-0.15
			s-0.15-0.22-0.15-0.36c0-0.14,0.05-0.26,0.15-0.35c0.1-0.1,0.22-0.15,0.35-0.15c0.14,0,0.26,0.05,0.36,0.15
			C46.67,20.04,46.72,20.16,46.72,20.3z"/>
		<path d="M49.02,18.92h-0.29c-0.59,0-0.98-0.21-1.17-0.62c-0.12-0.25-0.19-0.73-0.21-1.42l-0.1-2.79c-0.01-0.16,0.03-0.29,0.1-0.4
			c0.08-0.13,0.19-0.19,0.35-0.19c0.3,0,0.45,0.2,0.45,0.59v2.96c0,0.57,0.23,0.85,0.69,0.85h0.2V18.92z"/>
		<path d="M52.82,18.92h-0.29c-0.4,0-0.69-0.1-0.88-0.29c-0.13,0.41-0.43,0.62-0.9,0.62c-0.43,0-0.76-0.22-1.02-0.65
			c-0.18,0.21-0.41,0.32-0.68,0.32h-0.29V17.9h0.23c0.26,0,0.49-0.14,0.69-0.43c0.3-0.44,0.63-0.66,0.99-0.66
			c0.29,0,0.54,0.11,0.75,0.34c0.08,0.09,0.25,0.27,0.49,0.54c0.18,0.14,0.43,0.21,0.77,0.21h0.15V18.92z M51.1,18.14
			c0-0.13-0.05-0.26-0.15-0.37c-0.1-0.11-0.21-0.17-0.34-0.17c-0.2,0-0.29,0.12-0.29,0.36c0,0.14,0.05,0.25,0.15,0.35
			c0.1,0.1,0.22,0.15,0.35,0.15C51,18.46,51.1,18.35,51.1,18.14z"/>
		<path d="M56.93,17.57c-0.49,0.12-1.02,0.34-1.6,0.66c-0.5,0.28-0.81,0.44-0.95,0.49c-0.37,0.14-0.83,0.21-1.39,0.21h-0.42V17.9
			h0.62c0.42,0,0.79-0.05,1.09-0.15c0.07-0.02,0.5-0.2,1.29-0.54c-0.79-0.24-1.26-0.37-1.42-0.37c-0.07,0-0.17,0.04-0.32,0.13
			c-0.15,0.09-0.26,0.13-0.34,0.13c-0.23,0-0.35-0.13-0.35-0.38c0-0.21,0.11-0.4,0.33-0.59c0.22-0.19,0.44-0.29,0.65-0.29
			c0.26,0,0.66,0.1,1.2,0.29c0.62,0.22,1.15,0.35,1.57,0.4c0.29,0.03,0.44,0.21,0.44,0.53C57.33,17.33,57.2,17.5,56.93,17.57z"/>
		<path d="M62.28,18.92h-0.31c-0.81,0-1.25-0.38-1.31-1.13c-0.16,0.09-0.36,0.13-0.59,0.13c-0.28,0-0.53-0.06-0.75-0.18
			c-0.28-0.14-0.42-0.34-0.42-0.59c0-0.43,0.2-0.79,0.61-1.05c0.17-0.11,0.49-0.31,0.96-0.62c0.1-0.08,0.22-0.23,0.36-0.44
			c0.08-0.13,0.19-0.19,0.3-0.19c0.24,0,0.36,0.17,0.36,0.52c0,0.14-0.01,0.35-0.05,0.64c-0.03,0.28-0.05,0.5-0.05,0.64
			c0,0.36,0.02,0.63,0.07,0.8c0.09,0.32,0.26,0.48,0.52,0.48h0.29V18.92z M60.63,16.25c-0.07,0.06-0.26,0.18-0.57,0.36
			c-0.2,0.11-0.29,0.22-0.29,0.32c0,0.1,0.12,0.15,0.35,0.15c0.22,0,0.39-0.03,0.49-0.08c0-0.06,0-0.13,0-0.2
			C60.61,16.63,60.61,16.45,60.63,16.25z"/>
		<path d="M68.02,18.92h-0.25c-0.42,0-0.71-0.16-0.89-0.49c-0.17,0.33-0.47,0.49-0.91,0.49c-0.45,0-0.76-0.18-0.93-0.53
			c-0.16,0.35-0.44,0.53-0.85,0.53c-0.52,0-0.86-0.16-1.03-0.49c-0.18,0.33-0.48,0.49-0.89,0.49h-0.25V17.9h0.16
			c0.36,0,0.57-0.18,0.63-0.54c0.05-0.28,0.17-0.42,0.38-0.42s0.33,0.14,0.36,0.42c0.05,0.36,0.24,0.54,0.56,0.54
			c0.32,0,0.51-0.17,0.57-0.52c0.05-0.29,0.18-0.44,0.4-0.44c0.21,0,0.33,0.14,0.37,0.41c0.05,0.36,0.22,0.55,0.52,0.55
			c0.33,0,0.51-0.18,0.56-0.54c0.04-0.28,0.16-0.42,0.36-0.42c0.2,0,0.32,0.14,0.37,0.42c0.06,0.36,0.26,0.54,0.61,0.54h0.16V18.92z
			"/>
		<path d="M72.87,17.52c0,0.38-0.11,0.71-0.32,0.97c-0.23,0.29-0.53,0.43-0.91,0.43c-0.18,0-0.36-0.05-0.54-0.15
			c-0.19-0.1-0.32-0.24-0.39-0.4c-0.07,0.15-0.19,0.28-0.36,0.39s-0.34,0.16-0.51,0.16c-0.45,0-0.76-0.16-0.94-0.49
			c-0.18,0.33-0.48,0.49-0.89,0.49h-0.25V17.9h0.16c0.34,0,0.54-0.18,0.6-0.54c0.05-0.28,0.18-0.42,0.38-0.42
			c0.21,0,0.33,0.14,0.37,0.42c0.05,0.36,0.25,0.54,0.59,0.54c0.2,0,0.33-0.08,0.4-0.25c0.02-0.09,0.05-0.25,0.11-0.47
			c0.04-0.17,0.16-0.25,0.33-0.25c0.19,0,0.32,0.13,0.37,0.38c0.08,0.39,0.29,0.59,0.62,0.59c0.22,0,0.33-0.13,0.33-0.39
			c0-0.06-0.02-0.16-0.06-0.29c-0.04-0.13-0.05-0.22-0.05-0.29c0-0.1,0.03-0.19,0.1-0.27c0.07-0.08,0.15-0.12,0.25-0.12
			c0.21,0,0.37,0.12,0.47,0.35C72.83,17.07,72.87,17.28,72.87,17.52z"/>
		<path d="M76.83,18.92h-0.72c-0.29,0.99-1.06,1.74-2.32,2.22c-0.08,0.03-0.15,0.04-0.22,0.04c-0.12,0-0.21-0.04-0.29-0.11
			s-0.11-0.17-0.11-0.29c0-0.21,0.11-0.36,0.33-0.46c0.92-0.41,1.51-0.88,1.76-1.43c-0.48,0-0.82-0.06-1.03-0.17
			c-0.29-0.15-0.43-0.44-0.43-0.87c0-0.33,0.1-0.65,0.3-0.95c0.22-0.33,0.48-0.49,0.78-0.49c0.36,0,0.67,0.16,0.91,0.48
			c0.21,0.28,0.34,0.61,0.37,1h0.67V18.92z M75.3,17.96c-0.01-0.15-0.05-0.28-0.14-0.4c-0.09-0.14-0.21-0.22-0.35-0.22
			c-0.08,0-0.16,0.03-0.22,0.09s-0.09,0.13-0.09,0.22c0,0.16,0.11,0.25,0.32,0.29C74.91,17.95,75.07,17.96,75.3,17.96z"/>
		<path d="M79.68,17.83c0,0.33-0.09,0.6-0.26,0.83c-0.19,0.25-0.44,0.38-0.76,0.38c-0.4,0-0.73-0.15-0.98-0.45
			c-0.22,0.23-0.5,0.34-0.82,0.34h-0.28V17.9h0.17c0.17,0,0.3-0.02,0.39-0.07c0.09-0.05,0.19-0.15,0.29-0.29
			c0.22-0.31,0.36-0.5,0.42-0.57c0.27-0.3,0.55-0.45,0.83-0.45c0.33,0,0.59,0.14,0.77,0.43C79.6,17.18,79.68,17.48,79.68,17.83z
			 M78.99,17.87c0-0.12-0.03-0.23-0.09-0.32c-0.07-0.11-0.16-0.16-0.27-0.16s-0.23,0.05-0.34,0.15c-0.11,0.1-0.17,0.21-0.17,0.33
			c0,0.08,0.07,0.16,0.2,0.23c0.11,0.06,0.22,0.09,0.32,0.09C78.87,18.19,78.99,18.08,78.99,17.87z"/>
		<path d="M13.2,30.61c0,0.71-0.2,1.3-0.61,1.76c-0.45,0.51-1.06,0.77-1.85,0.77c-0.69,0-1.23-0.21-1.62-0.64
			c-0.33-0.36-0.5-0.8-0.5-1.31c0-0.31,0.05-0.62,0.16-0.94c0.13-0.4,0.32-0.61,0.54-0.61S9.67,29.76,9.67,30
			c0,0.11-0.03,0.27-0.1,0.5c-0.06,0.22-0.1,0.39-0.1,0.5c0,0.36,0.14,0.64,0.41,0.83c0.24,0.18,0.55,0.27,0.92,0.27
			c0.46,0,0.81-0.11,1.07-0.33c0.28-0.24,0.42-0.58,0.42-1.03c0-0.12-0.03-0.29-0.1-0.53s-0.1-0.41-0.1-0.52
			c0-0.33,0.16-0.49,0.47-0.49c0.22,0,0.39,0.19,0.5,0.57C13.16,30.04,13.2,30.31,13.2,30.61z M11.27,28.36
			c0,0.14-0.05,0.26-0.14,0.36s-0.21,0.15-0.36,0.15s-0.26-0.05-0.36-0.15s-0.15-0.22-0.15-0.36s0.05-0.26,0.15-0.36
			s0.22-0.15,0.36-0.15s0.26,0.05,0.36,0.15S11.27,28.22,11.27,28.36z"/>
		<path d="M15.48,31.92h-0.29c-0.59,0-0.98-0.21-1.17-0.62c-0.12-0.25-0.19-0.73-0.21-1.42l-0.1-2.79c-0.01-0.16,0.03-0.29,0.1-0.4
			c0.08-0.13,0.19-0.19,0.35-0.19c0.3,0,0.45,0.2,0.45,0.59v2.96c0,0.57,0.23,0.85,0.69,0.85h0.2V31.92z"/>
		<path d="M17.89,31.92h-2.66V30.9h2.66V31.92z"/>
		<path d="M22.73,30.52c0,0.38-0.11,0.71-0.32,0.97c-0.23,0.29-0.53,0.43-0.91,0.43c-0.18,0-0.36-0.05-0.54-0.15
			c-0.19-0.1-0.32-0.24-0.39-0.4c-0.07,0.15-0.19,0.28-0.36,0.39s-0.34,0.16-0.51,0.16c-0.45,0-0.76-0.16-0.94-0.49
			c-0.18,0.33-0.48,0.49-0.89,0.49h-0.25V30.9h0.16c0.34,0,0.54-0.18,0.6-0.54c0.05-0.28,0.18-0.42,0.38-0.42
			c0.21,0,0.33,0.14,0.37,0.42c0.05,0.36,0.25,0.54,0.59,0.54c0.2,0,0.33-0.08,0.4-0.25c0.02-0.09,0.05-0.25,0.11-0.47
			c0.04-0.17,0.16-0.25,0.33-0.25c0.19,0,0.32,0.13,0.37,0.38c0.08,0.39,0.29,0.59,0.62,0.59c0.22,0,0.33-0.13,0.33-0.39
			c0-0.06-0.02-0.16-0.06-0.29c-0.04-0.13-0.05-0.22-0.05-0.29c0-0.1,0.03-0.19,0.1-0.27c0.07-0.08,0.15-0.12,0.25-0.12
			c0.21,0,0.37,0.12,0.47,0.35C22.7,30.07,22.73,30.28,22.73,30.52z"/>
		<path d="M24.16,31.59c0,0.32-0.13,0.48-0.38,0.48c-0.24,0-0.36-0.15-0.37-0.45l-0.17-4.37c-0.01-0.18,0.03-0.34,0.1-0.48
			c0.09-0.17,0.22-0.25,0.38-0.25c0.3,0,0.44,0.22,0.44,0.67V31.59z"/>
		<path d="M28.66,31.92h-0.29c-0.32,0-0.56-0.1-0.74-0.31c-0.21,0.55-0.53,1.02-0.96,1.39c-0.36,0.32-0.85,0.6-1.47,0.86
			c-0.09,0.04-0.18,0.06-0.25,0.06c-0.11,0-0.21-0.04-0.29-0.11c-0.08-0.07-0.12-0.17-0.12-0.28c0-0.21,0.12-0.37,0.37-0.48
			c0.52-0.24,0.92-0.47,1.19-0.68c0.42-0.32,0.68-0.69,0.77-1.09c0.01-0.05,0.02-0.11,0.02-0.17c0-0.23-0.05-0.48-0.14-0.75
			c-0.02-0.05-0.03-0.1-0.03-0.15c0-0.12,0.04-0.23,0.12-0.31s0.19-0.13,0.31-0.14c0.18-0.01,0.33,0.09,0.44,0.32
			c0,0.01,0.09,0.19,0.25,0.53c0.14,0.2,0.37,0.3,0.69,0.3h0.13V31.92z"/>
		<path d="M32.77,30.57c-0.49,0.12-1.02,0.34-1.6,0.66c-0.5,0.28-0.81,0.44-0.95,0.49c-0.37,0.14-0.83,0.21-1.39,0.21h-0.42V30.9
			h0.62c0.42,0,0.79-0.05,1.09-0.15c0.07-0.02,0.5-0.2,1.29-0.54c-0.79-0.24-1.26-0.37-1.42-0.37c-0.07,0-0.17,0.04-0.32,0.13
			c-0.15,0.09-0.26,0.13-0.34,0.13c-0.23,0-0.35-0.13-0.35-0.38c0-0.21,0.11-0.4,0.33-0.59c0.22-0.19,0.44-0.29,0.65-0.29
			c0.26,0,0.66,0.1,1.2,0.29c0.62,0.22,1.15,0.35,1.57,0.4c0.29,0.03,0.44,0.21,0.44,0.53C33.17,30.33,33.03,30.5,32.77,30.57z
			 M31.47,27.48c0,0.14-0.05,0.26-0.15,0.36s-0.22,0.15-0.36,0.15s-0.26-0.05-0.36-0.15c-0.1-0.1-0.15-0.22-0.15-0.36
			s0.05-0.26,0.15-0.36c0.1-0.1,0.22-0.15,0.36-0.15c0.14,0,0.26,0.05,0.35,0.15C31.42,27.22,31.47,27.34,31.47,27.48z"/>
		<path d="M39.09,30.61c0,0.71-0.2,1.3-0.61,1.76c-0.45,0.51-1.06,0.77-1.85,0.77c-0.69,0-1.23-0.21-1.62-0.64
			c-0.33-0.36-0.5-0.8-0.5-1.31c0-0.31,0.05-0.62,0.16-0.94c0.13-0.4,0.32-0.61,0.54-0.61s0.34,0.12,0.34,0.36
			c0,0.11-0.03,0.27-0.1,0.5c-0.06,0.22-0.1,0.39-0.1,0.5c0,0.36,0.14,0.64,0.41,0.83c0.24,0.18,0.55,0.27,0.92,0.27
			c0.46,0,0.81-0.11,1.07-0.33c0.28-0.24,0.42-0.58,0.42-1.03c0-0.12-0.03-0.29-0.1-0.53s-0.1-0.41-0.1-0.52
			c0-0.33,0.16-0.49,0.47-0.49c0.22,0,0.39,0.19,0.5,0.57C39.05,30.04,39.09,30.31,39.09,30.61z M37.16,28.36
			c0,0.14-0.05,0.26-0.14,0.36s-0.21,0.15-0.36,0.15s-0.26-0.05-0.36-0.15s-0.15-0.22-0.15-0.36S36.2,28.1,36.3,28
			s0.22-0.15,0.36-0.15s0.26,0.05,0.36,0.15S37.16,28.22,37.16,28.36z"/>
		<path d="M41.37,31.92h-0.29c-0.59,0-0.98-0.21-1.17-0.62c-0.12-0.25-0.19-0.73-0.21-1.42l-0.1-2.79c-0.01-0.16,0.03-0.29,0.1-0.4
			c0.08-0.13,0.19-0.19,0.35-0.19c0.3,0,0.45,0.2,0.45,0.59v2.96c0,0.57,0.23,0.85,0.69,0.85h0.2V31.92z"/>
		<path d="M45.34,30.06c0,0.46-0.18,0.85-0.55,1.19c-0.48,0.45-1.19,0.67-2.14,0.67h-1.53V30.9h0.2c0.26,0,0.44-0.05,0.54-0.16
			c0.15-0.16,0.22-0.6,0.22-1.32c0-0.53-0.05-1.28-0.14-2.27c-0.02-0.16,0.03-0.3,0.12-0.43c0.1-0.13,0.22-0.19,0.38-0.19
			c0.28,0,0.42,0.17,0.44,0.51l0.06,1.6c0.01,0.38-0.01,0.69-0.06,0.96c0.42-0.45,0.84-0.68,1.28-0.68c0.33,0,0.61,0.1,0.84,0.31
			C45.22,29.45,45.34,29.73,45.34,30.06z M44.5,30.28c0-0.25-0.19-0.37-0.56-0.37c-0.23,0-0.53,0.16-0.9,0.47
			c-0.09,0.08-0.29,0.27-0.59,0.57c0.4,0,0.79-0.04,1.16-0.11C44.21,30.71,44.5,30.53,44.5,30.28z"/>
		<path d="M49.84,31.92h-0.29c-0.32,0-0.56-0.1-0.74-0.31c-0.21,0.55-0.53,1.02-0.96,1.39c-0.36,0.32-0.85,0.6-1.47,0.86
			c-0.09,0.04-0.18,0.06-0.25,0.06c-0.11,0-0.21-0.04-0.29-0.11c-0.08-0.07-0.12-0.17-0.12-0.28c0-0.21,0.12-0.37,0.37-0.48
			c0.52-0.24,0.92-0.47,1.19-0.68c0.42-0.32,0.68-0.69,0.77-1.09c0.01-0.05,0.02-0.11,0.02-0.17c0-0.23-0.05-0.48-0.14-0.75
			c-0.02-0.05-0.03-0.1-0.03-0.15c0-0.12,0.04-0.23,0.12-0.31s0.19-0.13,0.31-0.14c0.18-0.01,0.33,0.09,0.44,0.32
			c0,0.01,0.09,0.19,0.25,0.53c0.14,0.2,0.37,0.3,0.69,0.3h0.13V31.92z"/>
		<path d="M52.25,31.92h-2.66V30.9h2.66V31.92z"/>
		<path d="M57.1,30.52c0,0.38-0.11,0.71-0.32,0.97c-0.23,0.29-0.53,0.43-0.91,0.43c-0.18,0-0.36-0.05-0.54-0.15
			c-0.19-0.1-0.32-0.24-0.39-0.4c-0.07,0.15-0.19,0.28-0.36,0.39s-0.34,0.16-0.51,0.16c-0.45,0-0.76-0.16-0.94-0.49
			c-0.18,0.33-0.48,0.49-0.89,0.49H52V30.9h0.16c0.34,0,0.54-0.18,0.6-0.54c0.05-0.28,0.18-0.42,0.38-0.42
			c0.21,0,0.33,0.14,0.37,0.42c0.05,0.36,0.25,0.54,0.59,0.54c0.2,0,0.33-0.08,0.4-0.25c0.02-0.09,0.05-0.25,0.11-0.47
			c0.04-0.17,0.16-0.25,0.33-0.25c0.19,0,0.32,0.13,0.37,0.38c0.08,0.39,0.29,0.59,0.62,0.59c0.22,0,0.33-0.13,0.33-0.39
			c0-0.06-0.02-0.16-0.06-0.29c-0.04-0.13-0.05-0.22-0.05-0.29c0-0.1,0.03-0.19,0.1-0.27c0.07-0.08,0.15-0.12,0.25-0.12
			c0.21,0,0.37,0.12,0.47,0.35C57.06,30.07,57.1,30.28,57.1,30.52z"/>
		<path d="M61.83,31.92h-0.31c-0.81,0-1.25-0.38-1.31-1.13c-0.16,0.09-0.36,0.13-0.59,0.13c-0.28,0-0.53-0.06-0.75-0.18
			c-0.28-0.14-0.42-0.34-0.42-0.59c0-0.43,0.2-0.79,0.61-1.05c0.17-0.11,0.49-0.31,0.96-0.62c0.1-0.08,0.22-0.23,0.36-0.44
			c0.08-0.13,0.19-0.19,0.3-0.19c0.24,0,0.36,0.17,0.36,0.52c0,0.14-0.01,0.35-0.05,0.64c-0.03,0.28-0.05,0.5-0.05,0.64
			c0,0.36,0.02,0.63,0.07,0.8c0.09,0.32,0.26,0.47,0.52,0.47h0.29V31.92z M60.18,29.25c-0.07,0.06-0.26,0.18-0.57,0.36
			c-0.2,0.11-0.29,0.22-0.29,0.32c0,0.1,0.12,0.15,0.35,0.15c0.22,0,0.39-0.03,0.49-0.08c0-0.06,0-0.13,0-0.2
			C60.16,29.63,60.17,29.45,60.18,29.25z"/>
		<path d="M63.48,30.33c0,0.49-0.14,0.88-0.41,1.17s-0.66,0.43-1.15,0.43h-0.35V30.9h0.4c0.44,0,0.65-0.15,0.65-0.46
			c0-0.09-0.02-0.22-0.06-0.38c-0.04-0.17-0.06-0.3-0.06-0.38c0-0.12,0.04-0.22,0.12-0.31c0.08-0.09,0.18-0.13,0.3-0.13
			C63.29,29.23,63.48,29.6,63.48,30.33z M63.05,33.33c0,0.14-0.05,0.26-0.15,0.36c-0.1,0.1-0.22,0.15-0.36,0.15
			s-0.26-0.05-0.36-0.15c-0.1-0.1-0.15-0.22-0.15-0.36c0-0.14,0.05-0.25,0.15-0.35c0.1-0.1,0.22-0.15,0.35-0.15
			c0.14,0,0.26,0.05,0.36,0.14C63.01,33.07,63.05,33.19,63.05,33.33z"/>
		<path d="M66.41,31.09c0.37-0.07,0.64-0.25,0.81-0.54c0.12-0.22,0.18-0.54,0.18-0.98c0-0.15-0.01-0.35-0.03-0.59l-0.15-1.76
			c-0.01-0.17,0.01-0.31,0.08-0.44c0.08-0.15,0.2-0.23,0.36-0.23c0.29,0,0.45,0.2,0.47,0.6l0.12,1.97c0.04,0.63,0.1,1.07,0.19,1.32
			c0.12,0.32,0.33,0.48,0.62,0.48h0.17v1.02h-0.28c-0.26,0-0.49-0.07-0.68-0.22c-0.2-0.15-0.33-0.34-0.4-0.59
			c-0.31,0.68-1.07,1.02-2.28,1.02c-0.49,0-0.73-0.16-0.73-0.48c0-0.21,0.16-0.34,0.47-0.39C65.52,31.24,65.88,31.18,66.41,31.09z
			 M65.78,29.96c0-0.88-0.22-1.71-0.67-2.48c-0.06-0.11-0.09-0.22-0.09-0.33c0-0.13,0.04-0.24,0.12-0.34
			c0.08-0.09,0.19-0.14,0.31-0.14c0.38,0,0.68,0.43,0.9,1.29c0.16,0.61,0.23,1.19,0.23,1.74c0,0.32-0.03,0.62-0.08,0.91
			c-0.04,0.25-0.19,0.37-0.43,0.37c-0.23,0-0.34-0.11-0.34-0.34c0-0.08,0.01-0.19,0.02-0.34C65.77,30.15,65.78,30.04,65.78,29.96z"
			/>
		<path d="M71.65,31.92h-2.66V30.9h2.66V31.92z"/>
		<path d="M74.17,31.92h-0.29c-0.58,0-0.94-0.18-1.09-0.54c-0.22,0.36-0.58,0.54-1.08,0.54H71.4V30.9h0.32
			c0.42,0,0.67-0.2,0.73-0.59c0.04-0.28,0.17-0.42,0.37-0.42c0.2,0,0.32,0.14,0.36,0.42c0.05,0.39,0.28,0.59,0.7,0.59h0.29V31.92z
			 M72.66,28.68c0,0.14-0.05,0.26-0.15,0.36c-0.1,0.1-0.22,0.15-0.36,0.15c-0.14,0-0.26-0.05-0.35-0.15
			c-0.1-0.1-0.15-0.22-0.15-0.36c0-0.14,0.05-0.26,0.15-0.36c0.1-0.1,0.22-0.15,0.36-0.15s0.26,0.05,0.36,0.15
			C72.61,28.42,72.66,28.54,72.66,28.68z M73.88,28.68c0,0.14-0.05,0.26-0.15,0.36c-0.1,0.1-0.22,0.15-0.36,0.15
			c-0.14,0-0.26-0.05-0.35-0.15c-0.1-0.1-0.15-0.22-0.15-0.36c0-0.14,0.05-0.26,0.14-0.36c0.1-0.1,0.22-0.15,0.36-0.15
			s0.26,0.05,0.36,0.15C73.83,28.42,73.88,28.54,73.88,28.68z"/>
		<path d="M76.69,31.92h-0.29c-0.58,0-0.94-0.18-1.09-0.54c-0.22,0.36-0.58,0.54-1.08,0.54h-0.31V30.9h0.32
			c0.42,0,0.67-0.2,0.73-0.59c0.04-0.28,0.17-0.42,0.37-0.42c0.2,0,0.32,0.14,0.36,0.42c0.05,0.39,0.28,0.59,0.7,0.59h0.29V31.92z
			 M75.65,33.33c0,0.14-0.05,0.26-0.15,0.36c-0.1,0.1-0.21,0.15-0.36,0.15s-0.26-0.05-0.36-0.15c-0.1-0.1-0.15-0.22-0.15-0.36
			s0.05-0.26,0.15-0.36c0.1-0.1,0.22-0.14,0.36-0.14s0.26,0.05,0.36,0.14C75.6,33.07,75.65,33.19,75.65,33.33z"/>
		<path d="M79.53,30.83c0,0.33-0.09,0.6-0.26,0.83c-0.19,0.25-0.44,0.38-0.76,0.38c-0.4,0-0.73-0.15-0.98-0.45
			c-0.22,0.22-0.5,0.34-0.82,0.34h-0.28V30.9h0.17c0.17,0,0.3-0.02,0.39-0.07c0.09-0.05,0.19-0.15,0.29-0.29
			c0.22-0.31,0.36-0.5,0.42-0.57c0.27-0.3,0.55-0.45,0.83-0.45c0.33,0,0.59,0.14,0.77,0.43C79.46,30.18,79.53,30.48,79.53,30.83z
			 M78.84,30.87c0-0.12-0.03-0.23-0.09-0.32c-0.07-0.11-0.16-0.16-0.27-0.16s-0.23,0.05-0.34,0.15c-0.11,0.1-0.17,0.21-0.17,0.33
			c0,0.08,0.07,0.16,0.2,0.23c0.11,0.06,0.22,0.09,0.32,0.09C78.73,31.19,78.84,31.08,78.84,30.87z"/>
		<path d="M21.75,41.77c-0.34,0.27-0.75,0.4-1.22,0.4c-0.53,0-0.94-0.1-1.25-0.29c0.12,0.68,0.18,1.36,0.18,2.05
			c0,0.65-0.05,1.07-0.15,1.24c-0.06,0.11-0.17,0.16-0.32,0.16c-0.28,0-0.42-0.17-0.42-0.49l-0.04-1.98
			c-0.11-0.79-0.27-1.47-0.5-2.05c-0.05-0.13-0.07-0.24-0.07-0.34c0-0.14,0.04-0.26,0.14-0.35c0.09-0.09,0.21-0.14,0.35-0.14
			c0.15,0,0.31,0.15,0.49,0.44c0.21,0.35,0.41,0.54,0.58,0.59c-0.02-0.1-0.04-0.2-0.04-0.3c0-0.32,0.09-0.59,0.29-0.84
			c0.21-0.26,0.47-0.39,0.77-0.39c0.32,0,0.58,0.07,0.79,0.21c0.17,0.11,0.25,0.24,0.25,0.37c0,0.17-0.08,0.25-0.25,0.25
			c-0.07,0-0.17-0.02-0.3-0.05s-0.24-0.05-0.3-0.05c-0.14,0-0.26,0.05-0.34,0.14c-0.09,0.1-0.13,0.22-0.13,0.36
			c0,0.16,0.05,0.29,0.16,0.38s0.24,0.14,0.41,0.14c0.11,0,0.28-0.04,0.49-0.13c0.21-0.09,0.35-0.13,0.41-0.13
			c0.22,0,0.33,0.11,0.33,0.33C22.03,41.46,21.94,41.62,21.75,41.77z"/>
		<path d="M22.8,44.15c0.29-0.43,0.58-1.04,0.87-1.85c0.3-0.85,0.48-1.57,0.54-2.15c0.03-0.32,0.18-0.48,0.44-0.48
			c0.27,0,0.41,0.16,0.44,0.48c0.05,0.59,0.22,1.3,0.52,2.14c0.29,0.81,0.58,1.42,0.87,1.85c0.13,0.2,0.2,0.38,0.2,0.56
			c0,0.12-0.04,0.23-0.11,0.32s-0.17,0.14-0.29,0.14c-0.21,0-0.39-0.13-0.57-0.39c-0.63-0.95-0.99-1.88-1.08-2.79
			c-0.12,0.94-0.48,1.88-1.07,2.79c-0.17,0.26-0.35,0.39-0.56,0.39c-0.26,0-0.4-0.15-0.4-0.46C22.6,44.53,22.67,44.35,22.8,44.15z"
			/>
		<path d="M31.1,41.77c-0.34,0.27-0.75,0.4-1.22,0.4c-0.53,0-0.94-0.1-1.25-0.29c0.12,0.68,0.18,1.36,0.18,2.05
			c0,0.65-0.05,1.07-0.15,1.24c-0.06,0.11-0.17,0.16-0.32,0.16c-0.28,0-0.42-0.17-0.42-0.49l-0.04-1.98
			c-0.11-0.79-0.27-1.47-0.5-2.05c-0.05-0.13-0.07-0.24-0.07-0.34c0-0.14,0.04-0.26,0.14-0.35c0.09-0.09,0.21-0.14,0.35-0.14
			c0.15,0,0.31,0.15,0.49,0.44c0.21,0.35,0.41,0.54,0.58,0.59c-0.02-0.1-0.04-0.2-0.04-0.3c0-0.32,0.09-0.59,0.29-0.84
			c0.21-0.26,0.47-0.39,0.77-0.39c0.32,0,0.58,0.07,0.79,0.21c0.17,0.11,0.25,0.24,0.25,0.37c0,0.17-0.08,0.25-0.25,0.25
			c-0.07,0-0.17-0.02-0.3-0.05s-0.24-0.05-0.3-0.05c-0.14,0-0.26,0.05-0.34,0.14c-0.09,0.1-0.13,0.22-0.13,0.36
			c0,0.16,0.05,0.29,0.16,0.38s0.24,0.14,0.41,0.14c0.11,0,0.28-0.04,0.49-0.13c0.21-0.09,0.35-0.13,0.41-0.13
			c0.22,0,0.33,0.11,0.33,0.33C31.38,41.46,31.29,41.62,31.1,41.77z"/>
		<path d="M35.72,40.15c0,0.52-0.1,0.94-0.3,1.25c-0.24,0.38-0.6,0.57-1.09,0.57c-0.37,0-0.64-0.09-0.81-0.28
			c0.13,0.73,0.19,1.5,0.19,2.32c0,0.61-0.05,0.99-0.14,1.15c-0.06,0.11-0.17,0.16-0.33,0.16c-0.28,0-0.42-0.17-0.42-0.49
			c0.01-1.11,0-1.85-0.04-2.23c-0.08-0.71-0.23-1.44-0.46-2.17c-0.04-0.12-0.06-0.23-0.06-0.32c0-0.31,0.16-0.46,0.49-0.46
			c0.15,0,0.27,0.06,0.35,0.17c0.05,0.06,0.11,0.19,0.19,0.39c0.19,0.48,0.52,0.72,0.98,0.72c0.4,0,0.59-0.26,0.59-0.77
			c0-0.4,0.14-0.61,0.41-0.61c0.14,0,0.25,0.07,0.33,0.2C35.69,39.86,35.72,39.99,35.72,40.15z"/>
		<path d="M39.1,42.47c0,0.16-0.06,0.3-0.17,0.41c-0.12,0.11-0.25,0.17-0.41,0.17s-0.3-0.06-0.41-0.17
			c-0.12-0.11-0.17-0.25-0.17-0.41s0.06-0.3,0.17-0.41c0.11-0.11,0.25-0.17,0.41-0.17s0.3,0.06,0.41,0.17
			C39.04,42.17,39.1,42.31,39.1,42.47z M39.1,44.42c0,0.16-0.06,0.3-0.17,0.41C38.81,44.94,38.67,45,38.51,45s-0.3-0.06-0.41-0.17
			c-0.12-0.11-0.17-0.25-0.17-0.41c0-0.16,0.06-0.3,0.17-0.41c0.11-0.12,0.25-0.17,0.41-0.17s0.3,0.06,0.41,0.17
			C39.04,44.12,39.1,44.26,39.1,44.42z"/>
		<path d="M46.6,44.92h-0.3c-0.5,0-0.83-0.18-1-0.54c-0.4,0.52-1.43,0.78-3.09,0.78c-1.73,0-2.6-0.51-2.6-1.53
			c0-0.26,0.04-0.52,0.11-0.76c0.11-0.35,0.26-0.52,0.47-0.52c0.21,0,0.32,0.11,0.32,0.32c0,0.07-0.01,0.18-0.05,0.32
			c-0.03,0.14-0.05,0.25-0.05,0.32c0,0.25,0.09,0.43,0.29,0.55c0.28,0.18,0.8,0.26,1.56,0.26h0.54c1.11,0,1.8-0.16,2.06-0.49
			c0.04-0.04,0.11-0.21,0.24-0.49c0.08-0.17,0.18-0.26,0.32-0.26c0.15,0,0.25,0.06,0.3,0.19c0.01,0.04,0.03,0.15,0.07,0.33
			c0.06,0.32,0.29,0.48,0.68,0.48h0.14V44.92z M42.56,41.38c0,0.14-0.05,0.26-0.15,0.36c-0.1,0.1-0.22,0.15-0.36,0.15
			s-0.26-0.05-0.36-0.15c-0.1-0.1-0.15-0.22-0.15-0.36c0-0.14,0.05-0.26,0.15-0.35c0.1-0.1,0.22-0.15,0.35-0.15
			c0.14,0,0.26,0.05,0.36,0.14C42.51,41.12,42.56,41.24,42.56,41.38z M43.78,41.38c0,0.14-0.05,0.26-0.14,0.36s-0.21,0.15-0.36,0.15
			s-0.26-0.05-0.36-0.15s-0.15-0.22-0.15-0.36s0.05-0.26,0.15-0.36c0.1-0.1,0.22-0.14,0.36-0.14s0.26,0.05,0.36,0.14
			C43.73,41.12,43.78,41.24,43.78,41.38z"/>
		<path d="M49.12,44.92h-0.29c-0.58,0-0.94-0.18-1.09-0.54c-0.22,0.36-0.58,0.54-1.08,0.54h-0.31V43.9h0.32
			c0.42,0,0.67-0.2,0.73-0.59c0.04-0.28,0.17-0.42,0.37-0.42c0.2,0,0.32,0.14,0.36,0.42c0.05,0.39,0.28,0.59,0.7,0.59h0.29V44.92z
			 M48.08,46.33c0,0.14-0.05,0.26-0.15,0.36c-0.1,0.1-0.21,0.15-0.36,0.15s-0.26-0.05-0.36-0.15c-0.1-0.1-0.15-0.22-0.15-0.36
			s0.05-0.26,0.15-0.36c0.1-0.1,0.22-0.14,0.36-0.14s0.26,0.05,0.36,0.14C48.03,46.07,48.08,46.19,48.08,46.33z"/>
		<path d="M50.78,43.33c0,0.49-0.14,0.88-0.41,1.17c-0.28,0.28-0.66,0.43-1.15,0.43h-0.35V43.9h0.4c0.44,0,0.65-0.15,0.65-0.46
			c0-0.09-0.02-0.22-0.06-0.38c-0.04-0.17-0.06-0.3-0.06-0.38c0-0.12,0.04-0.22,0.12-0.31c0.08-0.09,0.18-0.13,0.3-0.13
			C50.59,42.23,50.78,42.6,50.78,43.33z M49.05,41.2c0-0.14,0.05-0.26,0.15-0.36c0.1-0.1,0.22-0.15,0.36-0.15s0.26,0.05,0.36,0.15
			c0.1,0.1,0.15,0.22,0.15,0.36s-0.05,0.26-0.15,0.36c-0.1,0.1-0.21,0.15-0.36,0.15s-0.26-0.05-0.36-0.15
			C49.1,41.46,49.05,41.34,49.05,41.2z M49.66,40.13c0-0.14,0.05-0.26,0.15-0.36s0.22-0.15,0.36-0.15s0.26,0.05,0.36,0.15
			c0.1,0.1,0.15,0.22,0.15,0.36s-0.05,0.26-0.15,0.36c-0.1,0.1-0.22,0.15-0.36,0.15c-0.14,0-0.26-0.05-0.35-0.15
			C49.71,40.38,49.66,40.27,49.66,40.13z M50.28,41.2c0-0.14,0.05-0.26,0.15-0.36c0.1-0.1,0.22-0.15,0.36-0.15s0.26,0.05,0.36,0.15
			c0.1,0.1,0.14,0.22,0.14,0.36s-0.05,0.26-0.14,0.36c-0.1,0.1-0.21,0.15-0.36,0.15s-0.26-0.05-0.36-0.15
			C50.32,41.46,50.28,41.34,50.28,41.2z"/>
		<path d="M55.6,43.63c0,0.43-0.16,0.77-0.47,1.03c-0.28,0.23-0.6,0.35-0.97,0.35c-0.77,0-1.15-0.33-1.15-0.99
			c0-0.21,0.06-0.46,0.18-0.74c0.09-0.22,0.19-0.39,0.29-0.51c-0.23-0.12-0.35-0.26-0.35-0.44c0-0.14,0.05-0.26,0.14-0.37
			s0.21-0.16,0.35-0.16c0.43,0,0.86,0.19,1.3,0.57C55.37,42.76,55.6,43.18,55.6,43.63z M54.66,43.72c0-0.25-0.21-0.46-0.62-0.64
			c-0.17,0.23-0.25,0.43-0.25,0.62c0,0.23,0.13,0.34,0.39,0.34c0.11,0,0.22-0.02,0.31-0.07C54.6,43.91,54.66,43.83,54.66,43.72z"/>
		<path d="M58.97,43.02c0.01,0.11,0.01,0.22,0.01,0.33c0,0.8-0.23,1.47-0.7,2.03c-0.44,0.53-1.06,0.91-1.84,1.13
			c-0.06,0.02-0.13,0.03-0.2,0.03c-0.29,0-0.44-0.13-0.44-0.4c0-0.22,0.13-0.39,0.4-0.51c0.68-0.31,1.14-0.59,1.39-0.86
			c0.29-0.31,0.44-0.73,0.44-1.25c0-0.06,0-0.15-0.01-0.26c-0.01-0.12-0.01-0.21-0.01-0.26c0-0.48,0.15-0.72,0.43-0.72
			C58.76,42.28,58.93,42.53,58.97,43.02z"/>
		<path d="M61.28,44.92h-0.29c-0.59,0-0.98-0.21-1.17-0.62c-0.12-0.25-0.19-0.73-0.21-1.42l-0.1-2.79c-0.01-0.16,0.03-0.29,0.1-0.4
			c0.08-0.13,0.19-0.19,0.35-0.19c0.3,0,0.45,0.2,0.45,0.59v2.96c0,0.57,0.23,0.85,0.69,0.85h0.2V44.92z"/>
		<path d="M65.09,44.92H64.8c-0.4,0-0.69-0.09-0.88-0.29c-0.13,0.41-0.43,0.62-0.9,0.62c-0.43,0-0.76-0.22-1.02-0.65
			c-0.18,0.21-0.41,0.32-0.68,0.32h-0.29V43.9h0.23c0.26,0,0.49-0.14,0.69-0.43c0.3-0.44,0.63-0.66,0.99-0.66
			c0.29,0,0.54,0.11,0.75,0.34c0.08,0.09,0.25,0.27,0.49,0.54c0.18,0.14,0.43,0.21,0.77,0.21h0.15V44.92z M63.36,44.15
			c0-0.13-0.05-0.26-0.15-0.37c-0.1-0.11-0.21-0.17-0.34-0.17c-0.2,0-0.29,0.12-0.29,0.36c0,0.14,0.05,0.26,0.15,0.35
			c0.1,0.1,0.22,0.15,0.35,0.15C63.27,44.46,63.36,44.35,63.36,44.15z"/>
		<path d="M69.94,43.52c0,0.38-0.11,0.71-0.32,0.97c-0.23,0.29-0.53,0.43-0.91,0.43c-0.18,0-0.36-0.05-0.54-0.15
			c-0.19-0.1-0.32-0.24-0.39-0.4c-0.07,0.15-0.19,0.28-0.36,0.39s-0.34,0.16-0.51,0.16c-0.45,0-0.76-0.16-0.94-0.49
			c-0.18,0.33-0.48,0.49-0.89,0.49h-0.25V43.9H65c0.34,0,0.54-0.18,0.6-0.54c0.05-0.28,0.18-0.42,0.38-0.42
			c0.21,0,0.33,0.14,0.37,0.42c0.05,0.36,0.25,0.54,0.59,0.54c0.2,0,0.33-0.08,0.4-0.25c0.02-0.09,0.05-0.25,0.11-0.47
			c0.04-0.17,0.16-0.25,0.33-0.25c0.19,0,0.32,0.13,0.37,0.38c0.08,0.39,0.29,0.59,0.62,0.59c0.22,0,0.33-0.13,0.33-0.39
			c0-0.06-0.02-0.16-0.06-0.29C69.01,43.1,69,43,69,42.93c0-0.1,0.03-0.19,0.1-0.27c0.07-0.08,0.15-0.12,0.25-0.12
			c0.21,0,0.37,0.12,0.47,0.35C69.9,43.07,69.94,43.28,69.94,43.52z M66.64,41.6c0-0.14,0.05-0.26,0.15-0.36
			c0.1-0.1,0.22-0.15,0.35-0.15c0.14,0,0.26,0.05,0.36,0.15c0.1,0.1,0.15,0.22,0.15,0.36s-0.05,0.26-0.15,0.36
			c-0.1,0.1-0.22,0.15-0.36,0.15s-0.26-0.05-0.36-0.15C66.69,41.86,66.64,41.74,66.64,41.6z M67.25,40.53
			c0-0.14,0.05-0.26,0.15-0.36c0.1-0.1,0.22-0.15,0.36-0.15s0.26,0.05,0.36,0.15c0.1,0.1,0.15,0.22,0.15,0.36s-0.05,0.26-0.15,0.36
			c-0.1,0.1-0.21,0.15-0.36,0.15s-0.26-0.05-0.36-0.15C67.3,40.79,67.25,40.67,67.25,40.53z M67.87,41.6c0-0.14,0.05-0.26,0.15-0.36
			c0.1-0.1,0.22-0.15,0.35-0.15c0.14,0,0.26,0.05,0.36,0.15c0.1,0.1,0.14,0.22,0.14,0.36s-0.05,0.26-0.14,0.36
			c-0.1,0.1-0.21,0.15-0.36,0.15s-0.26-0.05-0.36-0.15C67.91,41.86,67.87,41.74,67.87,41.6z"/>
	</g>
	<g>
		<g>
			<path class="st0" d="M113.24,20.85c-0.03-1.21-0.32-2.35-0.8-3.45c-0.48-1.1-1.23-1.97-2.15-2.71c-0.68-0.56-1.4-1.07-2.02-1.7
				c-1.3-1.33-2.38-2.81-3.18-4.49c-0.26-0.54-0.46-1.1-0.57-1.69c-0.02-0.11-0.01-0.19,0.07-0.28c0.66-0.76,1.31-1.52,1.96-2.29
				c0.02-0.03,0.04-0.06,0.09-0.07c0.1,0.26,0.21,0.52,0.31,0.78c0.83,2.12,1.94,4.08,3.34,5.88c0.59,0.75,1.22,1.47,1.89,2.16
				c0.53,0.54,1.04,1.09,1.41,1.76c0.38,0.67,0.68,1.37,0.85,2.13c0.1,0.43,0.05,0.85-0.08,1.27c-0.18,0.58-0.44,1.13-0.67,1.68
				c-0.13,0.31-0.26,0.61-0.39,0.92C113.27,20.78,113.25,20.82,113.24,20.85z"/>
			<path class="st0" d="M115.81,6.68c-0.05,0.28-0.11,0.54-0.2,0.8c-0.26,0.81-0.64,1.56-1.07,2.28c-0.53,0.88-1.14,1.71-1.82,2.49
				c-0.06,0.07-0.09,0.08-0.16,0.01c-0.65-0.69-1.27-1.41-1.85-2.15c-0.06-0.07-0.06-0.12-0.01-0.2c1.16-1.66,2.1-3.45,2.81-5.35
				c0.04-0.11,0.09-0.21,0.12-0.32c0.03-0.08,0.05-0.06,0.09-0.01c0.26,0.31,0.53,0.62,0.79,0.93c0.4,0.46,0.79,0.93,1.19,1.39
				C115.76,6.58,115.82,6.62,115.81,6.68z"/>
			<path class="st0" d="M107.06,20.83c-0.36-0.94-0.84-1.83-1.14-2.79c-0.16-0.52-0.12-1.02,0.03-1.52c0.32-1.05,0.81-2,1.52-2.84
				c0.16-0.19,0.16-0.19,0.34-0.02c0.5,0.49,1.06,0.92,1.61,1.35c0.12,0.1,0.12,0.09,0.01,0.2c-0.68,0.62-1.19,1.36-1.56,2.2
				c-0.34,0.76-0.57,1.54-0.7,2.36C107.11,20.12,107.08,20.48,107.06,20.83z"/>
			<path class="st0" d="M109.92,24.41c-0.54-0.02-1.08-0.42-1.48-1.05c-0.3-0.47-0.44-1-0.52-1.55c-0.01-0.08,0.02-0.08,0.09-0.07
				c0.38,0.09,0.77,0.16,1.16,0.2c0.56,0.06,1.13,0.06,1.69,0.02c0.49-0.03,0.97-0.11,1.45-0.22c0.05-0.01,0.09-0.01,0.08,0.06
				c-0.11,0.78-0.34,1.51-0.94,2.08C111.09,24.23,110.66,24.42,109.92,24.41z"/>
		</g>
		<g>
			<path class="st1" d="M114,21.15c0.11-0.28,0.23-0.56,0.34-0.83c0.24-0.59,0.47-1.19,0.74-1.77c0.27-0.57,0.7-0.98,1.25-1.27
				c0.86-0.44,1.76-0.74,2.71-0.87c0.36-0.05,0.73-0.04,1.09-0.05c0.78-0.01,1.57-0.05,2.35-0.12c1.56-0.14,3.08-0.45,4.58-0.9
				c1.14-0.34,2.23-0.78,3.31-1.26c0.03-0.01,0.06-0.04,0.11-0.03c-0.01,0.17-0.02,0.35-0.03,0.52c-0.03,0.43-0.07,0.86-0.1,1.3
				c-0.04,0.45-0.07,0.91-0.1,1.36c-0.01,0.07-0.05,0.1-0.1,0.14c-0.47,0.33-0.99,0.57-1.52,0.77c-0.97,0.37-1.98,0.61-3.01,0.76
				c-0.91,0.14-1.82,0.23-2.75,0.21c-0.56-0.01-1.12-0.08-1.67-0.15c-0.45-0.05-0.9-0.09-1.35-0.12c-1.97-0.12-3.66,0.61-5.2,1.76
				C114.42,20.78,114.22,20.97,114,21.15z"/>
			<path class="st1" d="M120.45,15.35c0.05-0.63,0.13-1.26,0.24-1.88c0.18-0.96,0.42-1.91,0.79-2.81c0.18-0.43,0.38-0.83,0.64-1.22
				c0.06-0.1,0.14-0.15,0.25-0.15c0.51-0.04,1.01-0.07,1.52-0.11c0.48-0.04,0.96-0.07,1.44-0.11c0.05,0,0.11-0.04,0.14,0
				c0.03,0.05-0.02,0.1-0.04,0.14c-0.28,0.64-0.57,1.28-0.8,1.94c-0.44,1.23-0.79,2.47-1.04,3.75c-0.02,0.09-0.05,0.17-0.05,0.26
				c0,0.14-0.07,0.19-0.19,0.2c-0.48,0.05-0.96,0.11-1.44,0.14c-0.43,0.02-0.87,0.05-1.3,0.07c-0.17,0.01-0.17,0-0.16-0.16
				C120.45,15.39,120.45,15.37,120.45,15.35z"/>
			<path class="st1" d="M118.39,25.51c0.47-0.52,0.88-1.07,1.22-1.67c0.5-0.88,0.87-1.81,1.02-2.81c0.06-0.39,0.07-0.78,0.05-1.17
				c-0.01-0.12,0.03-0.15,0.15-0.14c0.73,0.09,1.47,0.19,2.21,0.18c0.09,0,0.13,0.03,0.12,0.12c-0.08,1.09-0.39,2.1-0.86,3.08
				c-0.34,0.7-0.88,1.18-1.59,1.47c-0.75,0.31-1.5,0.61-2.25,0.92C118.43,25.5,118.41,25.51,118.39,25.51z"/>
			<path class="st1" d="M115.06,26.41c-0.98-0.01-1.73-0.57-1.91-1.53c-0.07-0.38-0.03-0.75,0.07-1.12
				c0.13-0.47,0.38-0.89,0.67-1.29c0.06-0.08,0.08-0.1,0.15,0c0.77,1.23,1.77,2.23,3,3c0.09,0.05,0.09,0.08,0.01,0.14
				c-0.49,0.37-1.01,0.65-1.62,0.75c-0.03,0-0.05,0.01-0.08,0.01C115.25,26.38,115.14,26.42,115.06,26.41z"/>
		</g>
		<g>
			<path class="st2" d="M113.26,37.91c0.13,0.31,0.26,0.61,0.38,0.92c0.24,0.56,0.5,1.12,0.69,1.7c0.11,0.33,0.2,0.66,0.16,1
				c-0.04,0.4-0.15,0.79-0.29,1.17c-0.38,0.99-0.9,1.89-1.65,2.66c-0.93,0.94-1.81,1.93-2.6,2.99c-0.58,0.78-1.1,1.59-1.58,2.44
				c-0.67,1.19-1.23,2.43-1.7,3.71c-0.03,0.08-0.05,0.09-0.12,0.02c-0.45-0.53-0.9-1.06-1.36-1.59c-0.22-0.25-0.43-0.5-0.65-0.76
				c-0.04-0.05-0.06-0.1-0.05-0.17c0.12-0.62,0.33-1.21,0.6-1.79c0.55-1.17,1.26-2.23,2.07-3.23c0.39-0.49,0.8-0.95,1.25-1.38
				c0.44-0.42,0.92-0.78,1.39-1.16c0.49-0.39,0.97-0.79,1.41-1.24c0.53-0.55,0.92-1.2,1.23-1.9c0.31-0.69,0.53-1.41,0.66-2.15
				c0.05-0.27,0.09-0.54,0.1-0.82C113.22,38.2,113.25,38.06,113.26,37.91z"/>
			<path class="st2" d="M115.82,52.05c-0.01,0.12-0.11,0.19-0.18,0.26c-0.59,0.7-1.19,1.39-1.79,2.09
				c-0.16,0.19-0.16,0.19-0.25-0.04c-0.32-0.85-0.67-1.7-1.08-2.51c-0.54-1.05-1.13-2.08-1.81-3.04c-0.03-0.04-0.06-0.08-0.01-0.14
				c0.58-0.75,1.2-1.47,1.85-2.16c0.12-0.13,0.11-0.12,0.23,0.02c0.47,0.55,0.91,1.12,1.31,1.72c0.45,0.67,0.86,1.36,1.19,2.1
				c0.23,0.51,0.42,1.04,0.53,1.59C115.81,51.98,115.81,52.01,115.82,52.05z"/>
			<path class="st2" d="M107.09,37.85c0.02,0.26,0.01,0.48,0.03,0.7c0.05,0.5,0.14,0.99,0.28,1.47c0.26,0.9,0.62,1.76,1.16,2.53
				c0.26,0.37,0.57,0.69,0.89,0.99c0.07,0.07,0.08,0.11,0,0.17c-0.34,0.27-0.68,0.55-1.02,0.82c-0.23,0.19-0.45,0.38-0.66,0.59
				c-0.13,0.13-0.13,0.13-0.26-0.02c-0.29-0.35-0.56-0.71-0.78-1.1c-0.36-0.62-0.63-1.27-0.82-1.96c-0.14-0.51-0.1-1.01,0.06-1.51
				c0.19-0.56,0.43-1.09,0.66-1.63c0.13-0.3,0.25-0.61,0.38-0.91C107.04,37.97,107.06,37.93,107.09,37.85z"/>
			<path class="st2" d="M107.92,37.01c0.07-0.53,0.19-1.03,0.44-1.49c0.29-0.52,0.68-0.93,1.26-1.11c0.6-0.19,1.16-0.08,1.66,0.3
				c0.55,0.41,0.83,0.99,1,1.64c0.05,0.18,0.07,0.36,0.11,0.54c0.02,0.09,0,0.13-0.11,0.1c-0.9-0.23-1.81-0.27-2.73-0.23
				c-0.5,0.02-0.99,0.1-1.47,0.22C108.03,36.99,107.98,37,107.92,37.01z"/>
		</g>
		<g>
			<path class="st3" d="M135.37,32.9c-0.15,0.14-0.3,0.27-0.45,0.39c-0.34,0.29-0.67,0.57-1.01,0.86c-0.32,0.28-0.64,0.55-0.96,0.83
				c-0.07,0.06-0.14,0.05-0.21,0.03c-0.85-0.17-1.64-0.51-2.4-0.93c-0.49-0.27-0.96-0.55-1.42-0.87c-0.57-0.4-1.12-0.82-1.65-1.28
				c-0.31-0.27-0.62-0.56-0.9-0.86c-0.4-0.42-0.76-0.88-1.12-1.34c-0.28-0.34-0.56-0.68-0.86-1.01c-0.38-0.42-0.79-0.8-1.27-1.1
				c-0.9-0.57-1.88-0.95-2.92-1.16c-0.5-0.1-1-0.18-1.52-0.18c0.17-0.07,0.35-0.15,0.52-0.22c0.6-0.25,1.19-0.53,1.8-0.76
				c0.43-0.16,0.86-0.3,1.33-0.26c0.33,0.02,0.64,0.11,0.94,0.21c0.71,0.25,1.38,0.56,1.99,0.99c0.36,0.25,0.68,0.53,0.99,0.84
				c1.21,1.19,2.49,2.28,3.9,3.22c1,0.66,2.05,1.23,3.13,1.74c0.65,0.31,1.32,0.56,1.99,0.82C135.31,32.87,135.34,32.88,135.37,32.9
				z"/>
			<path class="st3" d="M135.37,25.84c-0.55,0.22-1.09,0.42-1.61,0.65c-0.65,0.28-1.28,0.6-1.9,0.94c-0.63,0.34-1.24,0.71-1.83,1.1
				c-0.14,0.09-0.28,0.19-0.42,0.29c-0.05,0.04-0.09,0.05-0.15,0.01c-0.47-0.37-0.95-0.75-1.39-1.15c-0.27-0.24-0.54-0.49-0.81-0.73
				c-0.06-0.06-0.06-0.09,0-0.14c0.86-0.73,1.75-1.39,2.73-1.96c0.84-0.48,1.71-0.9,2.67-1.1c0.13-0.03,0.23-0.04,0.35,0.07
				c0.4,0.36,0.81,0.7,1.22,1.05c0.34,0.29,0.67,0.57,1.01,0.86C135.29,25.75,135.32,25.79,135.37,25.84z"/>
			<path class="st3" d="M118.69,32.46c0.5-0.02,1-0.08,1.49-0.18c1.25-0.26,2.41-0.73,3.43-1.52c0.27-0.21,0.51-0.44,0.73-0.7
				c0.06-0.07,0.09-0.08,0.16,0c0.28,0.35,0.56,0.7,0.85,1.05c0.19,0.23,0.38,0.46,0.6,0.66c0.08,0.08,0.07,0.12-0.01,0.19
				c-0.35,0.3-0.72,0.58-1.13,0.81c-0.6,0.34-1.23,0.62-1.89,0.81c-0.52,0.15-1.02,0.14-1.53-0.03c-0.62-0.21-1.22-0.48-1.82-0.74
				C119.27,32.7,118.98,32.58,118.69,32.46z"/>
			<path class="st3" d="M115.11,29.36c0.02-0.68,0.34-1.2,0.88-1.59c0.52-0.38,1.11-0.55,1.74-0.64c0.08-0.01,0.06,0.03,0.05,0.08
				c-0.06,0.27-0.12,0.54-0.15,0.81c-0.02,0.19-0.05,0.38-0.07,0.57c-0.03,0.38-0.04,0.76-0.02,1.14c0.03,0.59,0.1,1.18,0.24,1.76
				c0.03,0.11-0.01,0.12-0.09,0.1c-0.59-0.1-1.15-0.25-1.65-0.6c-0.44-0.32-0.76-0.72-0.88-1.26
				C115.12,29.61,115.1,29.49,115.11,29.36z"/>
		</g>
		<g>
			<path class="st4" d="M84.94,32.91c0.49-0.19,0.96-0.38,1.43-0.57c0.79-0.33,1.56-0.72,2.31-1.14c0.57-0.32,1.13-0.66,1.67-1.02
				c0.78-0.53,1.52-1.1,2.23-1.72c0.43-0.38,0.85-0.76,1.26-1.15c0.5-0.49,1.01-0.96,1.62-1.31c0.72-0.41,1.47-0.75,2.3-0.91
				c0.4-0.08,0.79-0.01,1.18,0.11c0.55,0.17,1.07,0.41,1.6,0.64c0.37,0.16,0.73,0.31,1.12,0.48c-0.18,0.02-0.35,0.02-0.51,0.03
				c-0.91,0.07-1.78,0.29-2.63,0.63c-0.63,0.26-1.24,0.57-1.78,1.01c-0.35,0.28-0.65,0.6-0.95,0.92c-0.65,0.72-1.2,1.53-1.87,2.23
				c-0.46,0.48-0.96,0.92-1.48,1.33c-0.62,0.5-1.27,0.95-1.95,1.35c-0.89,0.52-1.8,0.97-2.82,1.19c-0.14,0.03-0.24,0.04-0.36-0.07
				c-0.39-0.35-0.79-0.68-1.19-1.02c-0.34-0.29-0.69-0.58-1.03-0.88C85.03,32.99,84.99,32.95,84.94,32.91z"/>
			<path class="st4" d="M84.94,25.84c0.16-0.14,0.31-0.27,0.46-0.4c0.4-0.34,0.81-0.69,1.21-1.03c0.25-0.22,0.51-0.43,0.76-0.65
				c0.07-0.06,0.14-0.04,0.21-0.03c0.85,0.17,1.63,0.51,2.39,0.92c0.78,0.42,1.52,0.92,2.23,1.46c0.29,0.22,0.57,0.45,0.84,0.69
				c0.08,0.07,0.06,0.1,0,0.16c-0.32,0.29-0.64,0.59-0.96,0.87c-0.4,0.35-0.8,0.68-1.22,0.99c-0.06,0.04-0.09,0.04-0.14,0
				c-0.77-0.54-1.58-1.03-2.41-1.48c-1.05-0.58-2.15-1.04-3.27-1.47C85.01,25.87,84.98,25.86,84.94,25.84z"/>
			<path class="st4" d="M101.63,32.47c-0.26,0.11-0.53,0.22-0.79,0.33c-0.62,0.26-1.23,0.55-1.87,0.77
				c-0.55,0.19-1.1,0.19-1.66,0.02c-1.04-0.32-1.99-0.8-2.82-1.5c-0.22-0.18-0.22-0.18-0.03-0.38c0.44-0.45,0.83-0.95,1.22-1.44
				c0.07-0.08,0.12-0.21,0.21-0.23c0.09-0.02,0.15,0.13,0.22,0.2c0.73,0.77,1.63,1.28,2.61,1.65c0.7,0.27,1.43,0.44,2.17,0.53
				C101.13,32.44,101.38,32.45,101.63,32.47z"/>
			<path class="st4" d="M105.21,29.4c-0.02,0.57-0.27,1.06-0.72,1.44c-0.52,0.45-1.15,0.65-1.82,0.75
				c-0.16,0.02-0.16,0.02-0.12-0.14c0.11-0.5,0.18-1.01,0.22-1.53c0.03-0.44,0.02-0.88-0.01-1.32c-0.03-0.46-0.1-0.91-0.21-1.36
				c-0.02-0.09-0.01-0.11,0.08-0.1c0.77,0.11,1.48,0.34,2.03,0.91C105.01,28.42,105.2,28.87,105.21,29.4z"/>
		</g>
		<g>
			<path class="st5" d="M106.26,21.14c-0.48-0.48-1.03-0.87-1.62-1.21c-0.85-0.49-1.74-0.84-2.71-1.01
				c-0.55-0.09-1.1-0.08-1.65-0.05c-0.52,0.03-1.03,0.09-1.54,0.15c-0.7,0.09-1.4,0.13-2.1,0.09c-1.82-0.1-3.6-0.4-5.3-1.1
				c-0.41-0.17-0.81-0.38-1.18-0.63c-0.07-0.05-0.1-0.09-0.1-0.18c-0.05-0.73-0.12-1.47-0.17-2.2c-0.02-0.31-0.04-0.63-0.07-0.96
				c0.3,0.13,0.58,0.25,0.86,0.37c1.63,0.71,3.33,1.22,5.08,1.55c0.82,0.16,1.65,0.26,2.49,0.32c0.49,0.04,0.98,0.06,1.47,0.08
				c0.45,0.02,0.9,0,1.35,0.04c0.8,0.07,1.56,0.28,2.29,0.6c0.43,0.18,0.84,0.39,1.21,0.68c0.34,0.27,0.53,0.63,0.71,1.01
				c0.38,0.79,0.65,1.63,1.01,2.43C106.3,21.14,106.29,21.15,106.26,21.14z"/>
			<path class="st5" d="M99.6,15.56c-0.89-0.04-1.78-0.1-2.67-0.21c-0.09-0.01-0.13-0.04-0.15-0.14c-0.31-1.76-0.81-3.47-1.51-5.11
				C95.14,9.78,95,9.47,94.86,9.16c-0.04-0.09-0.04-0.12,0.08-0.11c0.78,0.06,1.56,0.12,2.34,0.18c0.24,0.02,0.48,0.04,0.72,0.05
				c0.07,0,0.11,0.03,0.15,0.09c0.34,0.49,0.59,1.02,0.8,1.58c0.37,1,0.61,2.03,0.76,3.08c0.07,0.45,0.12,0.89,0.15,1.34
				c0.01,0.21,0.03,0.18-0.17,0.18C99.66,15.56,99.63,15.56,99.6,15.56z"/>
			<path class="st5" d="M101.95,25.53c-0.8-0.35-1.62-0.64-2.43-0.98c-0.75-0.32-1.26-0.87-1.59-1.6c-0.31-0.69-0.57-1.39-0.69-2.14
				c-0.04-0.25-0.06-0.5-0.09-0.74c-0.02-0.12,0.03-0.15,0.15-0.15c0.74,0.01,1.48-0.1,2.21-0.18c0.1-0.01,0.12,0.01,0.12,0.11
				c-0.07,1.97,0.69,3.64,1.86,5.16C101.63,25.18,101.79,25.35,101.95,25.53z"/>
			<path class="st5" d="M107.19,24.58c-0.04,1.18-1.01,1.95-2.16,1.81c-0.67-0.08-1.24-0.38-1.77-0.77c-0.05-0.04-0.1-0.07,0-0.13
				c1.24-0.78,2.26-1.79,3.03-3.03c0.05-0.08,0.08-0.06,0.12,0c0.39,0.51,0.68,1.06,0.77,1.71
				C107.19,24.31,107.2,24.46,107.19,24.58z"/>
		</g>
		<g>
			<path class="st6" d="M101.92,33.23c-0.3,0.35-0.59,0.71-0.85,1.09c-0.7,1.03-1.19,2.15-1.38,3.39c-0.09,0.59-0.06,1.18-0.02,1.77
				c0.04,0.48,0.1,0.96,0.15,1.44c0.05,0.52,0.11,1.04,0.1,1.56c-0.02,0.76-0.09,1.52-0.2,2.27c-0.15,0.97-0.36,1.92-0.69,2.84
				c-0.21,0.61-0.48,1.19-0.83,1.72c-0.06,0.09-0.13,0.14-0.24,0.15c-0.39,0.03-0.78,0.05-1.17,0.08c-0.51,0.04-1.02,0.08-1.53,0.12
				c-0.12,0.01-0.24,0.01-0.35,0.02c-0.11,0.01-0.05-0.06-0.03-0.1c0.12-0.27,0.23-0.54,0.35-0.81c0.61-1.38,1.05-2.82,1.38-4.3
				c0.18-0.82,0.32-1.65,0.4-2.49c0.06-0.65,0.11-1.3,0.13-1.95c0.02-0.36,0.02-0.71,0.02-1.06c0.02-1,0.25-1.96,0.65-2.88
				c0.18-0.42,0.39-0.82,0.68-1.18c0.2-0.25,0.47-0.42,0.75-0.57c0.64-0.34,1.33-0.57,2-0.85
				C101.45,33.42,101.69,33.32,101.92,33.23z"/>
			<path class="st6" d="M89.83,44.71c0.01-0.19,0.02-0.36,0.03-0.53c0.04-0.56,0.09-1.12,0.13-1.68c0.03-0.33,0.05-0.66,0.08-0.99
				c0-0.07,0.05-0.1,0.1-0.14c0.47-0.33,0.99-0.57,1.52-0.77c0.97-0.37,1.98-0.61,3.01-0.77c0.5-0.08,1.01-0.13,1.51-0.18
				c0.1-0.01,0.14,0,0.13,0.13c-0.01,0.57-0.05,1.14-0.09,1.71c-0.03,0.39-0.09,0.77-0.13,1.16c-0.01,0.09-0.07,0.09-0.13,0.1
				c-0.62,0.11-1.24,0.25-1.86,0.41c-1.3,0.34-2.57,0.77-3.79,1.33C90.18,44.56,90.01,44.63,89.83,44.71z"/>
			<path class="st6" d="M106.31,37.59c-0.08,0.19-0.16,0.38-0.24,0.58c-0.28,0.67-0.53,1.35-0.84,2.01c-0.28,0.59-0.71,1-1.28,1.29
				c-0.85,0.44-1.74,0.73-2.69,0.86c-0.15,0.02-0.31,0.02-0.46,0.04c-0.07,0.01-0.11-0.01-0.11-0.1c0-0.73-0.09-1.45-0.18-2.17
				c0-0.01,0-0.03,0-0.04c-0.01-0.17-0.01-0.17,0.15-0.16c0.55,0.03,1.09-0.01,1.63-0.14c1.29-0.31,2.45-0.89,3.48-1.72
				c0.09-0.07,0.18-0.14,0.26-0.22c0.08-0.08,0.16-0.16,0.25-0.23C106.3,37.58,106.31,37.59,106.31,37.59z"/>
			<path class="st6" d="M107.19,34.16c0,0.7-0.21,1.24-0.53,1.74c-0.08,0.13-0.17,0.24-0.25,0.37c-0.05,0.08-0.08,0.08-0.14-0.01
				c-0.42-0.68-0.91-1.28-1.49-1.83c-0.47-0.45-0.97-0.84-1.52-1.18c-0.08-0.05-0.08-0.08-0.01-0.13c0.48-0.36,1-0.63,1.59-0.75
				c0.82-0.16,1.62,0.15,2.04,0.79C107.1,33.49,107.2,33.86,107.19,34.16z"/>
		</g>
		<g>
			<path class="st7" d="M118.36,33.22c0.8,0.34,1.62,0.63,2.42,0.97c0.7,0.3,1.21,0.78,1.53,1.46c0.27,0.57,0.51,1.14,0.65,1.76
				c0.13,0.53,0.21,1.06,0.2,1.61c-0.01,0.6,0.02,1.21,0.06,1.81c0.11,1.8,0.41,3.57,0.92,5.3c0.35,1.18,0.78,2.32,1.3,3.44
				c0.05,0.1,0.05,0.13-0.08,0.12c-0.55-0.05-1.1-0.09-1.65-0.13c-0.4-0.03-0.8-0.06-1.2-0.08c-0.18-0.01-0.32-0.05-0.44-0.23
				c-0.47-0.75-0.78-1.56-1.02-2.4c-0.25-0.85-0.41-1.72-0.52-2.59c-0.06-0.46-0.1-0.92-0.12-1.38c-0.01-0.32-0.02-0.65,0-0.97
				c0.02-0.46,0.08-0.91,0.13-1.37c0.04-0.41,0.09-0.83,0.12-1.24c0.01-0.21,0.02-0.42,0.02-0.63c0.02-0.89-0.17-1.73-0.5-2.55
				c-0.35-0.88-0.82-1.69-1.42-2.43C118.64,33.52,118.5,33.37,118.36,33.22z"/>
			<path class="st7" d="M123.98,39.98c0-0.04,0-0.09,0-0.13c0-0.21,0-0.21,0.21-0.19c0.79,0.08,1.58,0.17,2.36,0.34
				c1.02,0.22,2.02,0.51,2.96,0.98c0.23,0.12,0.45,0.25,0.66,0.4c0.06,0.04,0.08,0.08,0.08,0.15c0.05,0.63,0.1,1.25,0.15,1.88
				c0.03,0.39,0.06,0.79,0.09,1.18c0.01,0.09-0.01,0.11-0.1,0.07c-0.84-0.38-1.69-0.74-2.57-1.03c-1.04-0.34-2.09-0.63-3.17-0.84
				c-0.12-0.02-0.23-0.04-0.35-0.06c-0.07-0.01-0.09-0.04-0.1-0.1c-0.05-0.45-0.11-0.89-0.14-1.34
				C124.03,40.85,124,40.42,123.98,39.98C123.97,39.98,123.97,39.98,123.98,39.98z"/>
			<path class="st7" d="M114,37.6c0.4,0.35,0.8,0.67,1.24,0.96c0.97,0.63,2.01,1.07,3.14,1.28c0.42,0.08,0.85,0.07,1.28,0.06
				c0.1,0,0.14,0,0.13,0.13c-0.06,0.63-0.16,1.25-0.17,1.88c0,0.12-0.02,0.24-0.02,0.35c0.01,0.1-0.04,0.12-0.13,0.11
				c-0.31-0.02-0.62-0.06-0.92-0.12c-0.78-0.15-1.5-0.43-2.21-0.78c-0.63-0.31-1.06-0.8-1.34-1.43c-0.33-0.73-0.59-1.48-0.91-2.21
				C114.07,37.75,114.04,37.67,114,37.6z"/>
			<path class="st7" d="M113.13,34.24c0-0.63,0.22-1.16,0.74-1.55c0.43-0.32,0.93-0.41,1.45-0.35c0.65,0.08,1.21,0.37,1.72,0.75
				c0.09,0.07,0.09,0.1-0.01,0.17c-0.69,0.42-1.3,0.93-1.85,1.52c-0.41,0.44-0.79,0.91-1.11,1.43c-0.09,0.15-0.09,0.15-0.19,0.01
				c-0.37-0.5-0.65-1.05-0.73-1.68c0-0.02-0.01-0.04-0.01-0.06C113.13,34.4,113.13,34.32,113.13,34.24z"/>
		</g>
		<path class="st8" d="M106.26,21.14c0.01-0.01,0.02-0.02,0.03-0.03c0.02,0.03,0.03,0.05,0.06,0.1
			C106.29,21.2,106.27,21.17,106.26,21.14z"/>
	</g>
</g>
</svg>
